<svg width="40" height="40" viewBox="0 0 40 40" fill="none" xmlns="http://www.w3.org/2000/svg">
<circle cx="20" cy="20" r="19.5" fill="white" stroke="#767272"/>
<g clip-path="url(#clip0_10203_10)">
<path d="M29.8846 14.1786C29.7701 14.0145 29.5859 13.9131 29.3858 13.9045L16.9796 13.3698C16.6236 13.3542 16.3262 13.629 16.3109 13.9833C16.2958 14.3375 16.5702 14.6367 16.9244 14.6519L28.4907 15.1505L26.2165 22.2461H16.0962L14.2678 12.2907C14.2276 12.0725 14.0778 11.8904 13.8712 11.8094L10.8766 10.6329C10.5466 10.5037 10.1742 10.6658 10.0445 10.9955C9.91515 11.3253 10.0772 11.6979 10.4071 11.8276L13.0697 12.8736L14.9304 23.0038C14.9865 23.3083 15.2519 23.5295 15.5617 23.5295H15.8703L15.1655 25.4872C15.1065 25.6512 15.1308 25.8333 15.2312 25.9757C15.3315 26.1183 15.4945 26.203 15.6686 26.203H16.1629C15.8566 26.5439 15.6686 26.9928 15.6686 27.4864C15.6686 28.548 16.5324 29.4116 17.5937 29.4116C18.655 29.4116 19.5188 28.548 19.5188 27.4864C19.5188 26.9929 19.3308 26.5439 19.0245 26.203H23.2217C22.9153 26.5439 22.7273 26.9928 22.7273 27.4864C22.7273 28.548 23.5908 29.4116 24.6524 29.4116C25.714 29.4116 26.5775 28.548 26.5775 27.4864C26.5775 26.9929 26.3895 26.5439 26.0833 26.203H26.6845C26.9799 26.203 27.2192 25.9636 27.2192 25.6683C27.2192 25.3729 26.9798 25.1335 26.6845 25.1335H16.4295L17.0069 23.5293H26.6844C26.9635 23.5293 27.2104 23.349 27.2954 23.0835L29.9692 14.7413C30.0306 14.5509 29.9991 14.3428 29.8846 14.1786ZM17.5937 28.3423C17.1219 28.3423 16.7381 27.9585 16.7381 27.4867C16.7381 27.0148 17.1219 26.631 17.5937 26.631C18.0656 26.631 18.4493 27.0148 18.4493 27.4867C18.4493 27.9585 18.0656 28.3423 17.5937 28.3423ZM24.6524 28.3423C24.1805 28.3423 23.7968 27.9585 23.7968 27.4867C23.7968 27.0148 24.1805 26.631 24.6524 26.631C25.1243 26.631 25.508 27.0148 25.508 27.4867C25.508 27.9585 25.1243 28.3423 24.6524 28.3423Z" fill="#767272"/>
</g>
<defs>
<clipPath id="clip0_10203_10">
<rect width="20" height="20" fill="white" transform="translate(10 10)"/>
</clipPath>
</defs>
</svg>
